<svg width="721" height="238" viewBox="0 0 721 238" fill="none" xmlns="http://www.w3.org/2000/svg">
<g clip-path="url(#clip0_14_32)">
<path d="M251.858 135.146V25.146H268.608V69.646H283.608V25.146H300.358V135.146H283.608V84.021H268.608V135.146H251.858ZM338.671 136.271C333.963 136.271 330.088 135.521 327.046 134.021C324.046 132.521 321.692 130.354 319.983 127.521C318.317 124.688 317.15 121.292 316.483 117.333C315.817 113.333 315.483 108.875 315.483 103.958V69.021C315.483 64.646 315.921 60.6877 316.796 57.146C317.713 53.6043 319.108 50.5835 320.983 48.0835C322.9 45.5835 325.379 43.6668 328.421 42.3335C331.463 40.9585 335.129 40.271 339.421 40.271C343.796 40.271 347.442 40.9377 350.358 42.271C353.275 43.6043 355.567 45.5418 357.233 48.0835C358.942 50.6252 360.15 53.6877 360.858 57.271C361.608 60.8127 361.983 64.8335 361.983 69.3335V89.396H332.171V107.833C332.171 112.375 332.525 116.021 333.233 118.771C333.942 121.521 335.879 122.896 339.046 122.896C341.171 122.896 342.671 122.25 343.546 120.958C344.463 119.667 345.004 117.896 345.171 115.646C345.379 113.354 345.483 110.75 345.483 107.833V99.5835H361.858V104.583C361.858 109.625 361.546 114.104 360.921 118.021C360.338 121.938 359.213 125.25 357.546 127.958C355.921 130.667 353.588 132.729 350.546 134.146C347.504 135.563 343.546 136.271 338.671 136.271ZM332.108 79.7085H345.483V67.7085C345.483 64.5835 345.338 61.9585 345.046 59.8335C344.754 57.6668 344.171 56.0418 343.296 54.9585C342.421 53.8752 341.088 53.3335 339.296 53.3335C337.088 53.3335 335.463 53.9793 334.421 55.271C333.421 56.5627 332.775 58.3335 332.483 60.5835C332.233 62.7918 332.108 65.3127 332.108 68.146V79.7085ZM375.983 135.146V41.396H392.671V51.8335C393.754 48.2085 395.629 45.3752 398.296 43.3335C401.004 41.2918 404.442 40.271 408.608 40.271C408.692 40.271 408.733 40.9793 408.733 42.396C408.775 43.8127 408.796 45.4377 408.796 47.271C408.796 49.1043 408.796 50.7293 408.796 52.146C408.796 53.5627 408.796 54.271 408.796 54.271C406.879 54.271 404.796 54.5002 402.546 54.9585C400.338 55.4168 398.317 56.1252 396.483 57.0835C394.692 58.0002 393.421 59.2293 392.671 60.771V135.146H375.983ZM441.733 136.271C437.233 136.271 433.463 135.583 430.421 134.208C427.379 132.792 424.963 130.771 423.171 128.146C421.421 125.479 420.15 122.25 419.358 118.458C418.608 114.625 418.233 110.271 418.233 105.396V70.3335C418.233 64.4585 418.983 59.271 420.483 54.771C422.025 50.2293 424.525 46.6877 427.983 44.146C431.442 41.5627 436.025 40.271 441.733 40.271C446.067 40.271 449.713 41.0002 452.671 42.4585C455.671 43.9168 458.067 46.0002 459.858 48.7085C461.692 51.3752 463.025 54.5418 463.858 58.2085C464.692 61.8752 465.108 65.9168 465.108 70.3335V105.396C465.108 110.188 464.733 114.479 463.983 118.271C463.275 122.063 462.025 125.313 460.233 128.021C458.483 130.688 456.108 132.729 453.108 134.146C450.108 135.563 446.317 136.271 441.733 136.271ZM441.733 122.896C443.608 122.896 445.025 122.333 445.983 121.208C446.942 120.042 447.588 118.438 447.921 116.396C448.254 114.354 448.421 112 448.421 109.333V67.396C448.421 64.5627 448.233 62.1252 447.858 60.0835C447.483 58.0418 446.817 56.4585 445.858 55.3335C444.9 54.2085 443.525 53.646 441.733 53.646C439.858 53.646 438.421 54.2085 437.421 55.3335C436.463 56.4585 435.796 58.0418 435.421 60.0835C435.088 62.1252 434.921 64.5627 434.921 67.396V109.333C434.921 112 435.088 114.354 435.421 116.396C435.796 118.438 436.463 120.042 437.421 121.208C438.421 122.333 439.858 122.896 441.733 122.896ZM483.358 135.146V57.021H476.108V45.0835H483.421V40.2085C483.421 34.9585 484.775 30.896 487.483 28.021C490.192 25.1043 494.067 23.646 499.108 23.646C501.692 23.646 503.921 23.8543 505.796 24.271C507.713 24.646 508.921 24.9377 509.421 25.146V35.5835C508.213 35.4168 506.963 35.3335 505.671 35.3335C503.546 35.3335 502.046 35.771 501.171 36.646C500.338 37.521 499.921 38.8752 499.921 40.7085V45.0835H509.421V57.021H499.921V135.146H483.358ZM518.796 151.708V140.271H524.233C526.067 140.271 527.608 140.104 528.858 139.771C530.108 139.479 530.817 138.813 530.983 137.771C531.275 137.229 531.379 136.271 531.296 134.896C531.213 133.479 531.088 132.146 530.921 130.896L515.921 41.396H531.671L537.671 89.3335L540.171 114.583H541.546L543.796 89.3335L549.296 41.396H564.983L548.733 139.146C548.275 142.104 547.629 144.5 546.796 146.333C546.004 148.208 544.796 149.563 543.171 150.396C541.546 151.271 539.296 151.708 536.421 151.708H518.796Z" fill="#0B1220"/>
<path d="M163.454 46.4933C164.441 46.3838 169.187 46.0924 169.621 46.8425C168.379 49.2759 166.632 50.8474 165.101 53.0153C161.266 58.4478 157.297 63.8204 153.167 69.033C152.659 69.6748 152.047 70.2477 151.534 70.9214L124.94 106.075L116.174 117.632C114.994 119.181 113.797 120.976 112.57 122.447C116.496 123.862 120.937 124.75 124.989 125.769C126.088 126.045 129.649 126.421 130.171 127.021C130.105 127.942 128.127 128.554 127.346 128.941C123.116 131.035 118.802 132.069 114.211 132.951C99.8774 135.733 84.5486 133.801 72.2078 125.643C68.1517 122.961 64.3263 119.572 59.9871 117.195C53.6539 113.724 46.4981 111.352 39.2852 110.776C36.7996 110.592 32.9273 110.449 30.4933 110.622C20.8526 111.305 8.35319 114.473 0 119.365C0.855022 117.839 1.91234 116.834 2.94577 115.479C11.6529 103.961 22.0386 95.4116 35.2574 89.744C51.1347 82.9368 66.2316 83.4388 82.8987 81.1733C100.911 78.4823 116.475 69.6816 130.941 59.0556C139.408 52.8367 152.936 46.9769 163.454 46.4933Z" fill="#8A5E10"/>
<path d="M149.175 115.927C143.546 115.222 136.942 116.166 131.203 115.733C129.623 115.614 127.73 115.837 126.195 115.51L126.112 115.365C127.839 112.062 129.08 110.904 130.984 108.123C136.787 99.6429 143.042 91.3833 149.076 83.0551L180.812 39.4871C183.135 36.3431 185.322 33.1154 187.71 30.0231C188.952 28.4148 190.187 26.3932 191.764 25.1366C193.299 24.7071 197.921 24.8273 199.725 24.8298L211.301 24.8493C218.379 24.8326 225.458 24.8626 232.536 24.9393C234.958 24.9795 237.379 25.0616 239.803 25.0568C240.862 25.0547 241.781 25.097 242.735 25.6139C243.024 26.1562 243.392 26.7974 243.608 27.3616C242.27 30.8513 239.822 32.8486 237.633 35.8608C232.216 43.3167 226.255 50.3681 220.729 57.7412C219.385 59.5325 217.74 61.3674 216.317 63.2172L204.232 78.9379C202.395 81.3526 199.25 85.9017 197.267 87.9809C200.591 88.2117 205.557 88.041 209.06 88.0374L232.062 88.0646C233.868 88.0791 235.694 88.1052 237.5 88.1331C238.496 88.1485 240.363 87.9549 241.226 88.1198C241.19 88.7109 240.826 88.9084 240.363 89.2652C228.278 98.5672 216.203 108.139 204.048 117.332L144.135 163.557C126.609 177.045 109.26 190.782 91.6764 204.193C90.216 205.308 87.9462 207.271 86.3976 208.153C85.7476 208.729 79.8788 213.354 79.3925 213.444L79.2178 213.216C79.4891 212.54 84.3816 205.878 85.0747 204.962C85.5931 203.995 86.1831 203.022 86.8436 202.146C88.8158 199.53 90.7078 196.859 92.6252 194.202L108.769 171.75L133.536 137.335L142.709 124.627C144.991 121.455 146.649 119.041 149.175 115.927Z" fill="#A87318"/>
</g>
<defs>
<clipPath id="clip0_14_32">
<rect width="721" height="238" fill="white"/>
</clipPath>
</defs>
</svg>
