<svg width="244" height="189" viewBox="0 0 244 189" fill="none" xmlns="http://www.w3.org/2000/svg">
<path d="M163.454 21.6808C164.441 21.5713 169.187 21.2799 169.621 22.03C168.379 24.4634 166.632 26.0349 165.101 28.2028C161.266 33.6353 157.297 39.0079 153.167 44.2205C152.659 44.8623 152.047 45.4352 151.534 46.1089L124.94 81.262L116.174 92.8198C114.994 94.3685 113.797 96.1639 112.57 97.635C116.496 99.0495 120.937 99.938 124.989 100.957C126.088 101.233 129.649 101.608 130.171 102.208C130.105 103.13 128.127 103.742 127.346 104.128C123.116 106.222 118.802 107.256 114.211 108.139C99.8774 110.92 84.5486 108.989 72.2078 100.83C68.1517 98.1484 64.3263 94.76 59.9871 92.3823C53.6539 88.9119 46.4981 86.5394 39.2852 85.9634C36.7996 85.7799 32.9273 85.6365 30.4933 85.809C20.8526 86.4922 8.35319 89.6602 0 94.5528C0.855022 93.0261 1.91234 92.0215 2.94577 90.6666C11.6529 79.1483 22.0386 70.5991 35.2574 64.9315C51.1347 58.1243 66.2316 58.6263 82.8987 56.3608C100.911 53.6698 116.475 44.8691 130.941 34.2431C139.408 28.0242 152.936 22.1644 163.454 21.6808Z" fill="#8A5E10"/>
<path d="M149.175 91.1143C143.546 90.4096 136.942 91.3535 131.203 90.9207C129.623 90.8015 127.73 91.0243 126.195 90.6972L126.112 90.5524C127.839 87.2498 129.08 86.0911 130.984 83.3102C136.787 74.8304 143.042 66.5708 149.076 58.2426L180.812 14.6746C183.135 11.5306 185.322 8.30293 187.71 5.21062C188.952 3.60226 190.187 1.58071 191.764 0.324107C193.299 -0.105376 197.921 0.0148437 199.725 0.0173048L211.301 0.0367642C218.379 0.0201092 225.458 0.0501284 232.536 0.126822C234.958 0.167029 237.379 0.249116 239.803 0.244337C240.862 0.242248 241.781 0.284515 242.735 0.801438C243.024 1.34371 243.392 1.98489 243.608 2.54913C242.27 6.03878 239.822 8.03614 237.633 11.0483C232.216 18.5042 226.255 25.5556 220.729 32.9287C219.385 34.72 217.74 36.5549 216.317 38.4047L204.232 54.1254C202.395 56.5401 199.25 61.0892 197.267 63.1684C200.591 63.3992 205.557 63.2285 209.06 63.2249L232.062 63.2521C233.868 63.2666 235.694 63.2927 237.5 63.3206C238.496 63.336 240.363 63.1424 241.226 63.3073C241.19 63.8984 240.826 64.0959 240.363 64.4527C228.278 73.7547 216.203 83.3262 204.048 92.5195L144.135 138.744C126.609 152.232 109.26 165.97 91.6764 179.381C90.216 180.496 87.9462 182.459 86.3976 183.34C85.7476 183.917 79.8788 188.541 79.3925 188.631L79.2178 188.404C79.4891 187.727 84.3816 181.065 85.0747 180.149C85.5931 179.182 86.1831 178.209 86.8436 177.333C88.8158 174.718 90.7078 172.046 92.6252 169.389L108.769 146.938L133.536 112.522L142.709 99.8147C144.991 96.6421 146.649 94.2285 149.175 91.1143Z" fill="#A87318"/>
</svg>
